# xmcd
#
# Track frame offsets: 
#        150
#        19220
#        36672
#        57948
#        78930
#        101113
#        122682
#        142466
#        162219
#        183191
#        203323
#
# Disc length: 2970 seconds
#
# Revision: 1
# Processed by: cddbd v1.5.2PL0 Copyright (c) Steve Scherf et al.
# Submitted via: ExactAudioCopy v0.99pb5
#
DISCID=960b980b
DTITLE=Amaree - Amaree
DYEAR=2007
DGENRE=Rhythmic Soul
TTITLE0=Wrong Side Of Love
TTITLE1=Hurricane
TTITLE2=Loser In Love
TTITLE3=Circling Around
TTITLE4=Too Far Gone
TTITLE5=Something Special
TTITLE6=I'll Get By
TTITLE7=Falling Out Of Love
TTITLE8=Loving This Fool
TTITLE9=Little Too Late
TTITLE10=Wish I Never
EXTD=YEAR: 2007
EXTT0=
EXTT1=
EXTT2=
EXTT3=
EXTT4=
EXTT5=
EXTT6=
EXTT7=
EXTT8=
EXTT9=
EXTT10=
PLAYORDER=
